<?xml version="1.0" encoding="UTF-8"?>
<svg id="Vrstva_2" xmlns="http://www.w3.org/2000/svg" xmlns:xlink="http://www.w3.org/1999/xlink" version="1.1" viewBox="0 0 127.7 154.4">
  <!-- Generator: Adobe Illustrator 30.2.1, SVG Export Plug-In . SVG Version: 2.1.1 Build 1)  -->
  <defs>
    <style>
      .st0 {
        fill: url(#Nepojmenovaný_přechod);
      }

      .st1 {
        isolation: isolate;
      }

      .st2 {
        fill: none;
        stroke: #000;
        stroke-miterlimit: 10;
        stroke-width: .5px;
      }
    </style>
    <linearGradient id="Nepojmenovaný_přechod" data-name="Nepojmenovaný přechod" x1="66.5" y1="164.9" x2="58.5" y2="-2.2" gradientTransform="translate(0 156) scale(1 -1)" gradientUnits="userSpaceOnUse">
      <stop offset="0" stop-color="#ccc"/>
      <stop offset=".3" stop-color="#d7d7d7"/>
      <stop offset="1" stop-color="#f2f2f2"/>
    </linearGradient>
  </defs>
  <g id="Layer_1">
    <g>
      <path class="st0" d="M127.6,0v89.9c0,2.4-.1,4.7-.4,7-.9,8-3.2,15.6-6.8,22.5-1.6,3.2-3.5,6.2-5.6,9-2.1,2.8-4.3,5.4-6.8,7.7-11.4,11.1-27,18-44.2,18.2-17.2-.2-32.7-7.1-44.2-18.2-2.5-2.4-4.8-5-6.8-7.7-2.1-2.8-4-5.8-5.6-9-3.6-6.9-5.9-14.5-6.8-22.5-.2-2.3-.4-4.7-.4-7V0h127.6,0Z"/>
      <path class="st2" d="M0,53.6c42.5,11.2,85,11.2,127.6,0"/>
      <path class="st2" d="M63.8,4.6H3.8v84.6c0,33.3,26.8,60.3,60,60.7,33.2-.3,60-27.4,60-60.7V4.6h-60Z"/>
      <g>
        <path d="M124.4,67.6c-5.7.4-11.1,2.9-15.1,7-6.4,6.4-8.6,15.7-5.9,24.3,0,0,0,0,0,0,0,.1,0,.2.1.4.9,2.5,2.1,4.9,3.8,7,0,0,0,0,0,0,0,0,0,0,0,.1.5.7,1.1,1.3,1.8,2l11.1,11.1c0,0,0-.2.1-.2l-11.1-11.1c-.6-.6-1.2-1.3-1.8-2,0,0,0,0,0,0,0,0,0,0,0-.1-1.7-2.2-3-4.6-3.8-7.2,0,0,0,0,0,0,0-.1,0-.2-.1-.4-2.6-8.4-.3-17.5,5.9-23.7,4-4,9.3-6.4,14.9-6.9.6,0,1.2,0,1.8,0s.9,0,1.4,0v-.3c-1.1,0-2.1,0-3.2,0h0Z"/>
        <path d="M124.4,82.4c-5.7.4-11.1,2.9-15.1,6.9h0c-2.6,2.6-4.6,5.8-5.7,9.2,0,.1,0,.2.1.4,0,0,0,0,0,0,1.1-3.5,3.1-6.8,5.8-9.4h0c4-4,9.3-6.5,14.9-6.9.6,0,1.2,0,1.8,0s.9,0,1.3,0v-.3c-1.1,0-2.1,0-3.2,0h0ZM124.4,82.4c-5.7.4-11.1,2.9-15.1,6.9h0c-2.6,2.6-4.6,5.8-5.7,9.2,0,.1,0,.2-.1.4,0,0,0,0,0,0-1.5,4.8-1.5,10,0,14.8,0,0,0,0,0,0,0,.1,0,.2.1.4,1.2,3.5,3.1,6.5,5.7,9.2l5.4,5.4c0,0,.1-.1.2-.2l-5.4-5.4c-2.7-2.7-4.6-5.8-5.8-9.4,0,0,0,0,0,0,0-.1,0-.2-.1-.4-1.4-4.5-1.4-9.4,0-13.9,0-.1,0-.2.1-.4,0,0,0,0,0,0,1.1-3.5,3.1-6.8,5.8-9.4h0c4-4,9.3-6.5,14.9-6.9.6,0,1.2,0,1.8,0s.9,0,1.3,0v-.3c-1.1,0-2.1,0-3.2,0h0Z"/>
        <path d="M107.6,106.2s0,0,0-.1c0,0,0,0,0,.1,0,0,0,0,0,0,0,0,0,0,0,0,0,0,0,0,0,.1,0,0,0,0,0-.1,0,0,0,0,0,0,0,0,0,0,0,0ZM123.9,97.2c-5.5.5-10.7,3-14.6,6.9h0c-.6.6-1.2,1.3-1.8,2,0,0,0,0,0,.1,0,0,0,0,0,0-1.7,2.1-2.9,4.4-3.8,7,0,.1,0,.2-.1.4,0,0,0,0,0,0-2.1,6.6-1.3,13.8,2.3,19.7.6,1,1.3,2.1,2.1,3,0,0,.1-.1.2-.2-.8-.9-1.5-1.9-2.1-2.9-3.5-5.8-4.3-12.7-2.3-19.2,0-.1,0-.2.1-.4,0,0,0,0,0,0,.8-2.6,2.1-5,3.8-7.2,0,0,0,0,0-.1,0,0,0,0,0,0,.6-.7,1.2-1.4,1.8-2h0c3.9-3.9,9-6.3,14.4-6.8.8,0,1.6-.1,2.3-.1s.6,0,.9,0c0,0,0-.2,0-.3-1.1,0-2.2,0-3.3,0h0Z"/>
        <g>
          <path d="M18.4,74.6c-4-4-9.4-6.5-15.1-6.9-1.1,0-2.2,0-3.2,0v.3c1.1,0,2.1,0,3.2,0,5.6.4,10.9,2.9,15,6.9,4.5,4.5,6.9,10.5,6.9,16.7s-.2,3.8-1,7c0,.1,0,.2-.1.4,0,0,0,0,0,0-.9,2.6-2.1,5-3.8,7.2,0,0,0,0-.1.1,0,0,0,0,0,0-.5.7-1.1,1.4-1.8,2l-11.1,11.1c0,0,0,.2.1.2l11.1-11.1c.6-.6,1.2-1.3,1.8-2,0,0,0,0,.1-.1,0,0,0,0,0,0,.9-1.1,1.6-2.2,2.3-3.4.5-.9.9-1.8,1.5-3.5,0-.1,0-.2.1-.4,0,0,0,0,0,0,2.8-8.6.5-17.9-5.9-24.3h0Z"/>
          <path d="M24.2,98.9s0,0,0,0c0-.1,0-.2-.1-.4-1.2-3.4-3.1-6.6-5.7-9.2h0c-4-4.1-9.4-6.5-15.1-7-1.1,0-2.2,0-3.2,0v.3c1.1,0,2.1,0,3.2,0,5.6.4,10.9,2.9,14.9,6.9h0c2.6,2.6,4.6,5.9,5.8,9.4,0,0,0,0,0,0,0,.1,0,.2.1.4.7,2.2,1,4.6,1,7s-.3,4.2-1,7c0,.1,0,.2-.1.4,0,0,0,0,0,0-1.2,3.6-3.1,6.7-5.8,9.4l-5.4,5.4c0,0,.1.1.2.2l5.4-5.4c1.4-1.3,2.5-2.8,3.5-4.4.8-1.3,1.4-2.6,2.2-4.7,0-.1,0-.2.1-.4,0,0,0,0,0,0,1.5-4.8,1.5-10,0-14.8h0Z"/>
          <path d="M24.2,113.6s0,0,0,0c0-.1,0-.2-.1-.4-.9-2.5-2.1-4.9-3.8-7,0,0,0,0,0,0,0,0,0,0-.1-.1-.5-.7-1.1-1.3-1.8-2h0c-3.9-3.9-9.1-6.4-14.6-6.9-1.1-.1-2.2-.1-3.3,0,0,0,0,.2,0,.3,1.1,0,2.2,0,3.3,0,5.4.5,10.6,2.9,14.4,6.8h0c.6.6,1.2,1.3,1.8,2,0,0,0,0,0,0,0,0,0,0,.1.1,1.7,2.2,3,4.6,3.8,7.2,0,0,0,0,0,0,0,.1,0,.2.1.4.7,2.3,1,4.6,1,7,0,4.3-1.1,8.5-3.4,12.2-.6,1-1.3,2-2.1,2.9,0,0,.1.1.2.2.8-.9,1.5-1.9,2.1-3,3.6-5.9,4.4-13.1,2.3-19.7h0Z"/>
        </g>
      </g>
      <g class="st1">
        <g class="st1">
          <path d="M23.3,33.4h-3.5v6.9h-3.6v-18.3h7.1c3.8,0,6.1,2.6,6.1,5.7s-2.2,5.7-6.1,5.7ZM23.1,25.1h-3.3v5h3.3c1.6,0,2.7-1,2.7-2.5s-1-2.5-2.7-2.5Z"/>
        </g>
        <g class="st1">
          <path d="M41.5,40.3l-1.1-3.2h-6.5l-1.1,3.2h-3.7l6.7-18.3h2.8l6.7,18.3h-3.7ZM37.2,27.4l-2.3,6.7h4.6l-2.2-6.7Z"/>
        </g>
        <g class="st1">
          <path d="M52.7,25.1v15.1h-3.6v-15.1h-4.8v-3.2h13.2v3.2h-4.8Z"/>
          <path d="M70.1,40.3l-3.6-7.3h-2.6v7.3h-3.6v-18.3h7.2c3.7,0,6,2.5,6,5.6s-1.6,4.2-3.3,4.8l4.1,7.9h-4.1ZM67.3,25.1h-3.4v4.8h3.4c1.6,0,2.6-1,2.6-2.4s-1-2.4-2.6-2.4Z"/>
          <path d="M77.2,40.3v-18.3h3.6v18.3h-3.6Z"/>
        </g>
        <g class="st1">
          <path d="M96.1,38.5c-1.2,1.2-2.8,1.9-4.9,1.9s-3.7-.7-4.9-1.9c-1.8-1.8-1.9-3.9-1.9-7.4s0-5.6,1.9-7.4,2.8-1.9,4.9-1.9,3.7.7,4.9,1.9c1.8,1.8,1.9,3.9,1.9,7.4s0,5.6-1.9,7.4ZM93.5,26c-.5-.6-1.3-1-2.3-1s-1.8.4-2.3,1c-.7.8-.9,1.6-.9,5.2s.2,4.4.9,5.1c.5.6,1.3,1,2.3,1s1.8-.4,2.3-1c.7-.8.9-1.6.9-5.1s-.2-4.4-.9-5.2Z"/>
        </g>
        <g class="st1">
          <path d="M108.1,25.1v15.1h-3.6v-15.1h-4.8v-3.2h13.2v3.2h-4.8Z"/>
        </g>
      </g>
      <path d="M77.6,98.9l6.8-6.8c3.8-3.8,3.8-9.9,0-13.7h0c-3.8-3.8-9.9-3.8-13.7,0l-6.8,6.8-6.8-6.8c-3.8-3.8-9.9-3.8-13.7,0h0c-3.8,3.8-3.8,9.9,0,13.7l6.8,6.8-6.8,6.8c-3.8,3.8-3.8,9.9,0,13.7s9.9,3.8,13.7,0l6.8-6.8,6.8,6.8c3.8,3.8,9.9,3.8,13.7,0s3.8-9.9,0-13.7l-6.8-6.8h0ZM63.8,112.5h-13.7v-13.6l13.7-13.7,13.7,13.7v13.6s-13.7,0-13.7,0Z"/>
    </g>
  </g>
</svg>