<?xml version="1.0" encoding="UTF-8"?>
<svg id="Vrstva_2" data-name="Vrstva 2" xmlns="http://www.w3.org/2000/svg" xmlns:xlink="http://www.w3.org/1999/xlink" viewBox="0 0 127.69 154.37">
  <defs>
    <style>
      .cls-1 {
        font-family: DINPro-Bold, 'DIN Pro';
        font-size: 25.75px;
        font-weight: 700;
      }

      .cls-2 {
        fill: url(#linear-gradient);
      }

      .cls-3 {
        fill: none;
        stroke: #000;
        stroke-miterlimit: 10;
        stroke-width: .5px;
      }

      .cls-4 {
        letter-spacing: -.07em;
      }

      .cls-5 {
        letter-spacing: -.02em;
      }

      .cls-6 {
        letter-spacing: -.05em;
      }
    </style>
    <linearGradient id="linear-gradient" x1="66.45" y1="-8.91" x2="58.49" y2="158.2" gradientUnits="userSpaceOnUse">
      <stop offset="0" stop-color="#ccc"/>
      <stop offset=".27" stop-color="#d7d7d7"/>
      <stop offset="1" stop-color="#f2f2f2"/>
    </linearGradient>
  </defs>
  <g id="Layer_1" data-name="Layer 1">
    <g>
      <path class="cls-2" d="M127.63,0v89.91c0,2.38-.13,4.73-.38,7.04-.87,8.04-3.22,15.64-6.78,22.52-1.63,3.16-3.52,6.16-5.63,8.99-2.06,2.76-4.34,5.35-6.81,7.74-11.45,11.1-27.01,17.99-44.18,18.17-17.17-.18-32.73-7.07-44.18-18.17-2.47-2.39-4.75-4.98-6.81-7.74-2.11-2.82-4-5.83-5.63-8.99-3.56-6.88-5.91-14.48-6.78-22.53-.25-2.31-.38-4.66-.38-7.04V0h127.57Z"/>
      <path class="cls-3" d="M.06,53.64c42.52,11.22,85.04,11.22,127.57,0"/>
      <path class="cls-3" d="M63.85,4.57H3.84v84.59c0,33.29,26.81,60.31,60.01,60.65,33.2-.34,60.01-27.37,60.01-60.65V4.57h-60.01Z"/>
      <g>
        <path d="M124.42,67.61c-5.69.44-11.05,2.9-15.11,6.96-6.39,6.39-8.64,15.71-5.86,24.31,0,.01,0,.03.01.04.04.13.08.25.13.38.86,2.52,2.14,4.86,3.78,6.96.02.03.04.05.06.08.03.04.07.08.1.13.54.68,1.14,1.34,1.77,1.98l11.11,11.11c.04-.08.08-.16.12-.24l-11.05-11.05c-.64-.64-1.24-1.31-1.79-2-.02-.03-.04-.05-.06-.08-.03-.04-.07-.08-.1-.13-1.68-2.16-2.97-4.57-3.82-7.17,0-.01,0-.03-.01-.04-.04-.12-.08-.25-.12-.37-2.59-8.42-.34-17.48,5.92-23.74,4-4,9.3-6.44,14.93-6.87.61-.05,1.22-.07,1.83-.07.45,0,.91.01,1.36.04v-.26c-1.06-.06-2.14-.05-3.21.03Z"/>
        <path d="M124.42,82.37c-5.69.44-11.05,2.9-15.09,6.94l-.02.02c-2.58,2.58-4.55,5.73-5.72,9.15.04.13.08.25.12.37,0,.01,0,.03.01.04,1.14-3.51,3.14-6.75,5.77-9.38l.02-.02c4-4,9.3-6.44,14.93-6.87.61-.05,1.22-.07,1.83-.07.45,0,.91.01,1.35.04v-.26c-1.06-.06-2.14-.05-3.21.03ZM124.42,82.37c-5.69.44-11.05,2.9-15.09,6.94l-.02.02c-2.58,2.58-4.55,5.73-5.72,9.15-.04.12-.08.25-.13.37,0,.01,0,.03-.01.04-1.53,4.76-1.53,9.99,0,14.75,0,.01,0,.03.01.04.04.13.08.25.13.37,1.19,3.46,3.11,6.54,5.72,9.15l5.41,5.41c.05-.07.11-.14.16-.21l-5.39-5.39c-2.66-2.67-4.61-5.82-5.77-9.38,0-.01,0-.03-.01-.04-.04-.13-.08-.25-.12-.37-1.38-4.51-1.38-9.42,0-13.92.04-.13.08-.25.12-.38,0-.01,0-.03.01-.04,1.14-3.51,3.14-6.75,5.77-9.38l.02-.02c4-4,9.3-6.44,14.93-6.87.61-.05,1.22-.07,1.83-.07.45,0,.91.01,1.35.04v-.26c-1.06-.06-2.14-.05-3.21.03Z"/>
        <path d="M107.64,106.19s-.07-.08-.1-.13c-.04.04-.07.08-.1.13-.02.03-.04.05-.06.08.02.03.04.05.06.08.03.04.07.08.1.13.03-.04.06-.08.1-.13.02-.03.04-.05.06-.08-.02-.03-.04-.05-.06-.08ZM123.91,97.16c-5.49.54-10.67,2.99-14.58,6.9l-.02.02c-.63.63-1.22,1.29-1.77,1.98-.04.04-.07.08-.1.13-.02.03-.04.05-.06.08-1.65,2.1-2.92,4.44-3.78,6.96-.04.12-.08.25-.13.37,0,.01,0,.03-.01.04-2.13,6.61-1.31,13.8,2.27,19.73.62,1.04,1.34,2.05,2.13,2.99.06-.06.12-.12.18-.18-.78-.93-1.49-1.92-2.1-2.94-3.48-5.77-4.33-12.74-2.35-19.19.04-.13.08-.25.12-.37,0-.01,0-.03.01-.04.85-2.6,2.13-5.01,3.82-7.17.03-.04.06-.08.1-.13.02-.03.04-.05.06-.08.55-.7,1.15-1.37,1.79-2.01l.02-.02c3.87-3.86,8.99-6.29,14.42-6.82.77-.08,1.55-.12,2.33-.12.31,0,.63,0,.94.02.01-.08.02-.17.03-.26-1.11-.05-2.22-.01-3.33.09Z"/>
        <g>
          <path d="M18.37,74.56c-4.04-4.04-9.4-6.51-15.09-6.94-1.07-.08-2.15-.09-3.21-.03v.26c1.06-.06,2.13-.05,3.19.03,5.63.43,10.93,2.87,14.95,6.89,4.53,4.53,6.95,10.54,6.95,16.72,0,1.9-.23,3.81-1.05,7-.04.13-.08.25-.12.37,0,.01,0,.03-.01.04-.85,2.6-2.13,5.02-3.82,7.17-.03.04-.06.08-.1.13-.02.03-.04.05-.06.08-.55.69-1.15,1.37-1.79,2l-11.05,11.05c.04.08.08.16.12.24l11.11-11.11c.63-.63,1.22-1.3,1.77-1.98.04-.04.07-.08.1-.13.02-.03.04-.05.06-.08.85-1.09,1.61-2.24,2.26-3.45.48-.89.9-1.82,1.53-3.51.04-.13.08-.25.13-.38,0-.01,0-.03.01-.04,2.78-8.61.54-17.92-5.87-24.33Z"/>
          <path d="M24.24,98.89s0-.03-.01-.04c-.04-.13-.08-.25-.13-.37-1.17-3.42-3.14-6.57-5.72-9.15l-.02-.02c-4.04-4.04-9.4-6.51-15.09-6.94-1.07-.08-2.15-.09-3.21-.03v.26c1.06-.06,2.13-.05,3.19.03,5.63.43,10.93,2.87,14.93,6.87l.02.02c2.63,2.63,4.62,5.88,5.77,9.38,0,.01,0,.03.01.04.04.13.08.25.12.38.69,2.25,1.03,4.61,1.03,6.96,0,2.09-.27,4.18-1.03,6.96-.04.13-.08.25-.12.37,0,.01,0,.03-.01.04-1.16,3.56-3.1,6.72-5.77,9.38l-5.39,5.39c.05.07.1.14.16.21l5.41-5.41c1.35-1.35,2.52-2.83,3.49-4.42.77-1.26,1.43-2.59,2.22-4.73.04-.12.08-.25.13-.37,0-.01,0-.03.01-.04,1.53-4.76,1.53-9.99,0-14.75Z"/>
          <path d="M24.24,113.64s0-.03-.01-.04c-.04-.13-.08-.25-.13-.37-.86-2.52-2.13-4.86-3.78-6.96-.02-.03-.04-.05-.06-.08-.03-.04-.07-.08-.1-.13-.55-.69-1.14-1.35-1.77-1.98l-.02-.02c-3.91-3.91-9.09-6.36-14.58-6.9-1.1-.11-2.22-.14-3.33-.09,0,.08.02.17.03.26,1.09-.05,2.19-.01,3.27.09,5.43.53,10.55,2.95,14.42,6.82l.02.02c.63.63,1.23,1.31,1.79,2.01.02.03.04.05.06.08.03.04.07.08.1.13,1.69,2.16,2.97,4.56,3.82,7.17,0,.01,0,.03.01.04.04.13.08.25.12.37.7,2.28,1.05,4.63,1.05,6.97,0,4.26-1.15,8.49-3.4,12.22-.62,1.02-1.32,2.01-2.1,2.94.06.06.12.12.18.18.8-.95,1.51-1.95,2.13-2.99,3.58-5.93,4.41-13.12,2.27-19.74Z"/>
        </g>
      </g>
      <text class="cls-1" transform="translate(14.01 40.29)"><tspan class="cls-6" x="0" y="0">P</tspan><tspan class="cls-4" x="14.88" y="0">A</tspan><tspan x="29.51" y="0">TRI</tspan><tspan class="cls-5" x="68.9" y="0">O</tspan><tspan x="84.97" y="0">T</tspan></text>
      <path d="M77.57,98.86l6.81-6.81c3.78-3.78,3.78-9.91,0-13.69h0c-3.78-3.79-9.91-3.79-13.69,0l-6.83,6.83-6.83-6.83c-3.78-3.78-9.91-3.78-13.69,0h0c-3.78,3.79-3.78,9.92,0,13.7l6.81,6.81-6.81,6.81c-3.78,3.78-3.78,9.92,0,13.7,3.78,3.78,9.92,3.78,13.7,0l6.83-6.83,6.83,6.83c3.78,3.78,9.92,3.78,13.7,0,3.78-3.78,3.78-9.92,0-13.7l-6.81-6.81ZM63.83,112.52h0s-13.66,0-13.66,0v-13.62l13.68-13.68,13.68,13.68v13.62h-13.7Z"/>
    </g>
  </g>
</svg>